<?xml version="1.0" ?>
<!DOCTYPE svg  PUBLIC '-//W3C//DTD SVG 1.1//EN'  'http://www.w3.org/Graphics/SVG/1.1/DTD/svg11.dtd'>
<!-- Uploaded to: SVG Repo, www.svgrepo.com, Generator: SVG Repo Mixer Tools -->
<svg fill="#000000" width="800px" height="800px" viewBox="0 0 32 32" style="fill-rule:evenodd;clip-rule:evenodd;stroke-linejoin:round;stroke-miterlimit:2;" version="1.1" xml:space="preserve" xmlns="http://www.w3.org/2000/svg" xmlns:serif="http://www.serif.com/" xmlns:xlink="http://www.w3.org/1999/xlink">
<g transform="matrix(1,0,0,1,0,-432)">
<g transform="matrix(0.916667,0,0,0.916667,-0.666667,35.3333)">
<path d="M28,438.182C28,437.603 27.77,437.048 27.361,436.639C26.952,436.23 26.397,436 25.818,436L6.182,436C5.603,436 5.048,436.23 4.639,436.639C4.23,437.048 4,437.603 4,438.182L4,457.818C4,458.397 4.23,458.952 4.639,459.361C5.048,459.77 5.603,460 6.182,460L25.818,460C26.397,460 26.952,459.77 27.361,459.361C27.77,458.952 28,458.397 28,457.818L28,438.182Z" style="fill:rgb(144,224,239);"/>
</g>
<g transform="matrix(1.07143,0,0,1.07143,-4.78571,-30.8571)">
<circle cx="25" cy="453" r="7" style="fill:rgb(144,224,239);"/>
</g>
<path d="M5,434L23,434C23.796,434 24.559,434.316 25.121,434.879C25.684,435.441 26,436.204 26,437L26,446.999C28.677,448.432 30.5,451.255 30.5,454.5C30.5,459.191 26.691,463 22,463C18.556,463 15.588,460.947 14.253,458L5,458C4.204,458 3.441,457.684 2.879,457.121C2.316,456.559 2,455.796 2,455C2,450.816 2,441.184 2,437C2,436.204 2.316,435.441 2.879,434.879C3.441,434.316 4.204,434 5,434ZM22,448C25.587,448 28.5,450.913 28.5,454.5C28.5,458.087 25.587,461 22,461C18.413,461 15.5,458.087 15.5,454.5C15.5,450.913 18.413,448 22,448ZM20.414,454L23,454C24.246,454 24.935,454.704 24.932,455.496C24.93,456.291 24.236,457 23,457L21,457C20.448,457 20,457.448 20,458C20,458.552 20.448,459 21,459L23,459C25.657,459 26.926,457.211 26.932,455.504C26.939,453.795 25.684,452 23,452L20.414,452L20.707,451.707C21.097,451.317 21.097,450.683 20.707,450.293C20.317,449.903 19.683,449.903 19.293,450.293L17.293,452.293C16.902,452.683 16.902,453.317 17.293,453.707L19.293,455.707C19.683,456.097 20.317,456.097 20.707,455.707C21.097,455.317 21.097,454.683 20.707,454.293L20.414,454ZM10,436L5,436C4.735,436 4.48,436.105 4.293,436.293C4.105,436.48 4,436.735 4,437L4,455C4,455.265 4.105,455.52 4.293,455.707C4.48,455.895 4.735,456 5,456L13.632,456C13.545,455.513 13.5,455.012 13.5,454.5C13.5,449.809 17.309,446 22,446C22.689,446 23.358,446.082 24,446.237L24,437C24,436.735 23.895,436.48 23.707,436.293C23.52,436.105 23.265,436 23,436L18,436L18,439.623C18,440.263 17.693,440.865 17.175,441.241C16.657,441.617 15.99,441.723 15.381,441.524C15.381,441.524 13.937,441.054 13.937,441.054L12.646,441.495C12.035,441.703 11.361,441.604 10.836,441.229C10.311,440.853 10,440.247 10,439.602L10,436ZM12,436L16,436L16,439.623C15.165,439.351 14.239,439.049 14.239,439.049C14.034,438.982 13.812,438.984 13.607,439.054L12,439.602L12,436Z" style="fill:rgb(25,144,167);"/>
</g>
</svg>