<svg id="svg" version="1.1" xmlns="http://www.w3.org/2000/svg" xmlns:xlink="http://www.w3.org/1999/xlink" width="400" height="400" viewBox="0, 0, 400,400"><g id="svgg"><path id="path0" d="M113.402 92.411 C 111.203 92.608,108.953 92.977,108.402 93.231 C 107.851 93.485,107.130 93.823,106.800 93.982 C 106.184 94.279,102.644 95.334,99.800 96.069 C 97.189 96.744,94.800 97.646,94.800 97.956 C 94.800 98.116,94.035 98.561,93.100 98.947 C 92.165 99.332,91.087 99.817,90.705 100.024 C 90.323 100.231,89.755 100.400,89.443 100.400 C 89.131 100.400,88.094 101.057,87.138 101.860 C 86.182 102.664,84.472 103.734,83.338 104.238 C 82.204 104.743,81.034 105.496,80.738 105.912 C 80.442 106.328,79.390 107.191,78.400 107.830 C 77.410 108.469,76.510 109.107,76.400 109.247 C 76.290 109.386,75.842 109.973,75.405 110.550 C 74.968 111.128,74.467 111.600,74.292 111.600 C 73.849 111.600,68.416 117.243,67.200 118.966 C 66.650 119.745,65.919 120.478,65.576 120.595 C 65.232 120.711,64.615 121.570,64.204 122.503 C 63.793 123.436,62.865 124.829,62.141 125.598 C 61.417 126.366,60.429 128.053,59.945 129.346 C 59.462 130.639,58.601 132.206,58.033 132.829 C 57.446 133.472,56.677 135.134,56.252 136.680 C 55.841 138.176,54.902 140.618,54.165 142.107 C 53.204 144.048,52.648 145.973,52.200 148.907 C 51.857 151.158,51.392 154.170,51.168 155.600 C 50.146 162.130,50.066 172.982,51.013 176.785 C 51.148 177.327,51.416 179.037,51.609 180.585 C 52.435 187.203,52.834 188.898,54.138 191.319 C 54.873 192.684,55.580 194.250,55.709 194.800 C 56.544 198.347,56.905 199.346,57.633 200.125 C 58.367 200.910,60.800 205.547,60.800 206.161 C 60.800 206.296,61.341 206.974,62.003 207.666 C 62.665 208.359,63.596 209.705,64.072 210.657 C 64.547 211.610,65.257 212.491,65.648 212.615 C 66.039 212.739,66.484 213.233,66.636 213.713 C 66.956 214.722,76.898 224.800,77.573 224.800 C 77.821 224.800,78.560 225.410,79.215 226.156 C 79.869 226.901,81.069 227.826,81.880 228.211 C 82.691 228.596,83.815 229.351,84.377 229.888 C 85.285 230.755,89.108 232.800,89.821 232.800 C 89.970 232.800,90.927 233.407,91.946 234.149 C 93.102 234.990,94.855 235.756,96.600 236.182 C 98.140 236.558,100.018 237.224,100.773 237.663 C 104.491 239.820,119.498 242.004,126.974 241.476 C 140.125 240.547,144.701 239.832,148.204 238.158 C 149.746 237.421,151.636 236.710,152.404 236.577 C 154.595 236.198,157.584 234.812,158.954 233.540 C 159.369 233.155,160.226 232.726,160.858 232.587 C 162.444 232.239,163.966 231.424,165.490 230.107 C 166.200 229.494,167.460 228.641,168.290 228.211 C 170.310 227.166,176.017 222.321,178.905 219.200 C 179.617 218.430,180.920 217.066,181.800 216.169 C 182.680 215.271,183.747 213.921,184.172 213.169 C 184.596 212.416,185.348 211.440,185.842 211.000 C 186.337 210.560,187.364 209.000,188.124 207.533 C 188.884 206.066,189.961 204.376,190.516 203.777 C 191.071 203.178,191.841 201.679,192.227 200.444 C 192.890 198.323,193.540 196.848,194.009 196.400 C 195.020 195.433,195.843 193.032,196.611 188.800 C 196.912 187.145,197.653 184.764,198.043 184.200 C 201.123 179.746,200.812 155.694,197.577 148.147 C 197.165 147.184,196.707 145.453,196.559 144.299 C 196.224 141.676,194.958 138.175,193.775 136.600 C 193.279 135.940,192.681 134.680,192.445 133.800 C 191.890 131.731,190.486 129.136,189.577 128.500 C 189.185 128.224,188.746 127.464,188.602 126.810 C 188.459 126.156,187.544 124.735,186.571 123.652 C 185.597 122.569,184.800 121.555,184.800 121.399 C 184.800 121.243,184.215 120.375,183.500 119.469 C 179.757 114.730,174.698 109.844,171.231 107.620 C 170.101 106.895,168.957 105.988,168.688 105.606 C 168.420 105.223,167.390 104.534,166.400 104.075 C 165.410 103.615,164.060 102.725,163.400 102.096 C 162.740 101.468,161.210 100.633,160.000 100.241 C 157.841 99.542,155.658 98.391,154.689 97.442 C 154.420 97.178,152.143 96.456,149.630 95.838 C 147.116 95.220,144.391 94.366,143.575 93.940 C 140.650 92.415,123.216 91.532,113.402 92.411 M132.411 108.282 C 134.439 109.680,134.374 108.950,134.387 130.313 C 134.398 147.511,134.484 150.457,134.980 150.648 C 135.300 150.770,135.863 151.662,136.233 152.630 C 136.649 153.720,137.558 154.925,138.621 155.796 C 139.754 156.725,140.427 157.643,140.601 158.501 C 140.935 160.140,141.351 161.645,142.200 164.286 C 142.817 166.208,142.808 167.329,142.153 169.668 C 142.036 170.086,142.261 170.429,142.757 170.586 C 143.191 170.724,143.917 171.603,144.371 172.540 C 144.861 173.553,145.926 174.757,146.998 175.513 C 147.989 176.212,148.800 177.040,148.800 177.354 C 148.800 177.668,149.700 178.572,150.800 179.362 C 151.900 180.152,152.800 181.052,152.800 181.362 C 152.800 181.672,153.700 182.572,154.800 183.362 C 155.900 184.152,156.800 185.031,156.800 185.316 C 156.800 185.601,157.610 186.628,158.600 187.600 C 160.839 189.797,160.845 190.439,158.646 192.576 C 157.681 193.514,156.773 194.655,156.628 195.111 C 156.483 195.568,155.744 196.308,154.986 196.755 C 154.228 197.203,153.254 198.150,152.822 198.861 C 150.962 201.918,143.717 201.389,143.613 198.188 C 143.606 197.962,143.209 197.512,142.730 197.188 C 141.446 196.320,139.600 194.559,139.600 194.204 C 139.600 193.765,137.965 192.400,137.439 192.399 C 137.197 192.399,136.460 191.591,135.800 190.605 C 135.140 189.619,134.250 188.696,133.822 188.554 C 132.975 188.274,131.635 186.843,131.613 186.196 C 131.583 185.271,129.753 184.790,125.309 184.538 C 120.513 184.266,118.825 183.837,117.400 182.527 C 116.960 182.123,115.739 181.344,114.686 180.796 C 112.817 179.823,110.993 177.560,108.600 173.243 C 106.630 169.689,107.317 161.711,109.856 158.669 C 110.375 158.047,110.800 157.342,110.800 157.101 C 110.800 156.860,111.565 155.924,112.500 155.021 C 115.729 151.903,115.600 152.940,115.600 130.108 L 115.600 109.844 116.675 108.722 L 117.750 107.600 124.586 107.600 C 130.373 107.600,131.574 107.705,132.411 108.282 " stroke="none" fill="#fbfafb" fill-rule="evenodd"></path><path id="path1" d="M48.294 62.240 C 48.173 62.361,47.757 62.506,47.370 62.563 C 46.664 62.667,46.327 63.464,46.315 65.051 C 46.310 65.854,46.055 65.916,41.855 66.141 C 35.306 66.491,34.091 66.751,34.654 67.682 C 35.288 68.730,34.262 69.912,32.549 70.105 C 30.377 70.349,30.385 70.342,30.116 72.346 C 29.907 73.907,29.847 73.963,28.259 74.079 C 27.019 74.171,26.508 74.423,26.165 75.115 C 25.462 76.534,23.987 77.945,23.068 78.079 C 22.411 78.174,22.207 78.539,22.100 79.800 C 21.903 82.131,21.798 82.283,20.432 82.202 C 18.397 82.081,18.151 82.667,18.043 87.892 C 17.998 90.097,17.770 90.318,15.367 90.498 C 14.908 90.532,14.475 90.749,14.404 90.980 C 13.866 92.722,14.062 281.205,14.603 281.745 C 14.931 282.074,15.200 282.504,15.200 282.702 C 15.200 283.101,16.906 284.800,17.308 284.800 C 17.448 284.800,17.122 284.358,16.582 283.818 C 16.042 283.278,15.600 282.614,15.600 282.342 C 15.600 280.444,17.903 284.457,18.139 286.768 C 18.464 289.939,18.253 289.727,21.300 289.949 C 21.761 289.983,22.000 290.332,22.000 290.974 C 22.000 293.160,22.664 294.000,24.390 294.000 C 25.865 294.000,26.005 294.092,26.061 295.100 C 26.162 296.920,26.199 297.133,26.468 297.402 C 26.802 297.735,27.862 297.931,29.543 297.969 C 30.554 297.992,30.830 298.145,30.659 298.589 C 30.535 298.914,30.683 299.319,30.988 299.489 C 31.537 299.797,31.594 299.926,31.606 300.900 C 31.610 301.233,31.742 301.200,32.000 300.800 C 32.282 300.364,32.389 300.343,32.394 300.724 C 32.397 301.012,32.565 301.145,32.766 301.021 C 32.967 300.897,33.207 301.021,33.299 301.298 C 33.429 301.689,37.523 301.826,51.795 301.918 C 75.944 302.073,74.677 302.509,75.535 293.763 C 76.105 287.949,76.498 286.281,77.721 284.499 C 78.286 283.674,79.213 281.740,79.781 280.200 C 80.349 278.660,81.230 277.040,81.738 276.600 C 82.246 276.160,83.089 275.170,83.610 274.400 C 84.835 272.592,89.002 268.484,90.913 267.200 C 91.732 266.650,92.500 265.894,92.621 265.520 C 92.742 265.147,93.237 264.717,93.720 264.565 C 95.515 264.003,99.026 262.288,99.800 261.595 C 102.446 259.228,118.162 257.703,125.200 259.131 C 131.178 260.343,133.163 260.906,133.908 261.600 C 134.341 262.003,135.975 262.916,137.540 263.628 C 139.105 264.340,140.477 265.214,140.590 265.569 C 140.703 265.925,141.439 266.562,142.225 266.985 C 143.813 267.841,148.800 272.499,148.800 273.127 C 148.800 273.347,149.586 274.335,150.547 275.324 C 151.507 276.312,152.421 277.628,152.576 278.247 C 152.731 278.866,153.447 280.189,154.166 281.186 C 155.757 283.393,155.963 283.897,156.632 287.200 C 156.921 288.630,157.362 290.610,157.610 291.600 C 157.858 292.590,158.273 294.511,158.532 295.868 C 158.832 297.445,159.468 298.999,160.292 300.168 L 161.584 302.000 197.592 302.000 L 233.600 302.000 233.600 217.344 C 233.600 134.077,233.613 132.611,234.413 127.925 C 235.310 122.669,236.504 118.999,237.435 118.642 C 238.852 118.098,238.020 90.000,236.587 90.000 C 235.179 90.000,234.060 87.794,233.849 84.600 C 233.574 80.446,233.499 80.000,233.071 80.000 C 232.875 80.000,232.818 79.730,232.945 79.400 C 233.071 79.070,233.001 78.777,232.787 78.750 C 232.574 78.723,232.040 78.655,231.600 78.600 C 231.160 78.545,230.643 78.478,230.452 78.450 C 230.261 78.423,230.012 77.581,229.899 76.580 C 229.649 74.363,229.588 74.296,227.713 74.215 C 226.269 74.152,226.203 74.086,225.916 72.404 C 225.564 70.343,225.288 70.120,223.189 70.198 C 221.577 70.258,221.406 70.065,221.569 68.361 C 221.602 68.010,221.353 67.493,221.015 67.212 C 220.677 66.932,220.400 66.816,220.400 66.956 C 220.400 67.096,219.815 66.968,219.100 66.672 C 218.385 66.376,216.540 66.091,215.000 66.040 C 212.372 65.952,208.946 64.121,209.804 63.263 C 210.929 62.138,207.207 62.083,128.357 62.051 C 84.444 62.033,48.415 62.118,48.294 62.240 M139.945 92.785 C 141.124 92.994,142.758 93.514,143.575 93.940 C 144.391 94.366,147.116 95.220,149.630 95.838 C 152.143 96.456,154.420 97.178,154.689 97.442 C 155.658 98.391,157.841 99.542,160.000 100.241 C 161.210 100.633,162.740 101.468,163.400 102.096 C 164.060 102.725,165.410 103.615,166.400 104.075 C 167.390 104.534,168.420 105.223,168.688 105.606 C 168.957 105.988,170.101 106.895,171.231 107.620 C 174.698 109.844,179.757 114.730,183.500 119.469 C 184.215 120.375,184.800 121.243,184.800 121.399 C 184.800 121.555,185.597 122.569,186.571 123.652 C 187.544 124.735,188.459 126.156,188.602 126.810 C 188.746 127.464,189.185 128.224,189.577 128.500 C 190.486 129.136,191.890 131.731,192.445 133.800 C 192.681 134.680,193.279 135.940,193.775 136.600 C 194.958 138.175,196.224 141.676,196.559 144.299 C 196.707 145.453,197.165 147.184,197.577 148.147 C 200.812 155.694,201.123 179.746,198.043 184.200 C 197.653 184.764,196.912 187.145,196.611 188.800 C 195.843 193.032,195.020 195.433,194.009 196.400 C 193.540 196.848,192.890 198.323,192.227 200.444 C 191.841 201.679,191.071 203.178,190.516 203.777 C 189.961 204.376,188.884 206.066,188.124 207.533 C 187.364 209.000,186.337 210.560,185.842 211.000 C 185.348 211.440,184.596 212.416,184.172 213.169 C 183.747 213.921,182.680 215.271,181.800 216.169 C 180.920 217.066,179.617 218.430,178.905 219.200 C 176.017 222.321,170.310 227.166,168.290 228.211 C 167.460 228.641,166.200 229.494,165.490 230.107 C 163.966 231.424,162.444 232.239,160.858 232.587 C 160.226 232.726,159.369 233.155,158.954 233.540 C 157.584 234.812,154.595 236.198,152.404 236.577 C 151.636 236.710,149.746 237.421,148.204 238.158 C 144.701 239.832,140.125 240.547,126.974 241.476 C 119.498 242.004,104.491 239.820,100.773 237.663 C 100.018 237.224,98.140 236.558,96.600 236.182 C 94.855 235.756,93.102 234.990,91.946 234.149 C 90.927 233.407,89.970 232.800,89.821 232.800 C 89.108 232.800,85.285 230.755,84.377 229.888 C 83.815 229.351,82.691 228.596,81.880 228.211 C 81.069 227.826,79.869 226.901,79.215 226.156 C 78.560 225.410,77.821 224.800,77.573 224.800 C 76.898 224.800,66.956 214.722,66.636 213.713 C 66.484 213.233,66.039 212.739,65.648 212.615 C 65.257 212.491,64.547 211.610,64.072 210.657 C 63.596 209.705,62.665 208.359,62.003 207.666 C 61.341 206.974,60.800 206.296,60.800 206.161 C 60.800 205.547,58.367 200.910,57.633 200.125 C 56.905 199.346,56.544 198.347,55.709 194.800 C 55.580 194.250,54.873 192.684,54.138 191.319 C 52.834 188.898,52.435 187.203,51.609 180.585 C 51.416 179.037,51.148 177.327,51.013 176.785 C 50.066 172.982,50.146 162.130,51.168 155.600 C 51.392 154.170,51.857 151.158,52.200 148.907 C 52.648 145.973,53.204 144.048,54.165 142.107 C 54.902 140.618,55.841 138.176,56.252 136.680 C 56.677 135.134,57.446 133.472,58.033 132.829 C 58.601 132.206,59.462 130.639,59.945 129.346 C 60.429 128.053,61.417 126.366,62.141 125.598 C 62.865 124.829,63.793 123.436,64.204 122.503 C 64.615 121.570,65.232 120.711,65.576 120.595 C 65.919 120.478,66.650 119.745,67.200 118.966 C 68.416 117.243,73.849 111.600,74.292 111.600 C 74.467 111.600,74.968 111.128,75.405 110.550 C 75.842 109.973,76.290 109.386,76.400 109.247 C 76.510 109.107,77.410 108.469,78.400 107.830 C 79.390 107.191,80.442 106.328,80.738 105.912 C 81.034 105.496,82.204 104.743,83.338 104.238 C 84.472 103.734,86.182 102.664,87.138 101.860 C 88.094 101.057,89.131 100.400,89.443 100.400 C 89.755 100.400,90.323 100.231,90.705 100.024 C 91.087 99.817,92.165 99.332,93.100 98.947 C 94.035 98.561,94.800 98.116,94.800 97.956 C 94.800 97.646,97.189 96.744,99.800 96.069 C 102.644 95.334,106.184 94.279,106.800 93.982 C 107.130 93.823,107.851 93.485,108.402 93.231 C 110.877 92.091,134.186 91.761,139.945 92.785 M116.675 108.722 L 115.600 109.844 115.600 130.108 C 115.600 152.940,115.729 151.903,112.500 155.021 C 111.565 155.924,110.800 156.860,110.800 157.101 C 110.800 157.342,110.375 158.047,109.856 158.669 C 107.317 161.711,106.630 169.689,108.600 173.243 C 110.993 177.560,112.817 179.823,114.686 180.796 C 115.739 181.344,116.960 182.123,117.400 182.527 C 118.825 183.837,120.513 184.266,125.309 184.538 C 129.753 184.790,131.583 185.271,131.613 186.196 C 131.635 186.843,132.975 188.274,133.822 188.554 C 134.250 188.696,135.140 189.619,135.800 190.605 C 136.460 191.591,137.197 192.399,137.439 192.399 C 137.965 192.400,139.600 193.765,139.600 194.204 C 139.600 194.559,141.446 196.320,142.730 197.188 C 143.209 197.512,143.606 197.962,143.613 198.188 C 143.717 201.389,150.962 201.918,152.822 198.861 C 153.254 198.150,154.228 197.203,154.986 196.755 C 155.744 196.308,156.483 195.568,156.628 195.111 C 156.773 194.655,157.681 193.514,158.646 192.576 C 160.845 190.439,160.839 189.797,158.600 187.600 C 157.610 186.628,156.800 185.601,156.800 185.316 C 156.800 185.031,155.900 184.152,154.800 183.362 C 153.700 182.572,152.800 181.672,152.800 181.362 C 152.800 181.052,151.900 180.152,150.800 179.362 C 149.700 178.572,148.800 177.668,148.800 177.354 C 148.800 177.040,147.989 176.212,146.998 175.513 C 145.926 174.757,144.861 173.553,144.371 172.540 C 143.917 171.603,143.191 170.724,142.757 170.586 C 142.261 170.429,142.036 170.086,142.153 169.668 C 142.808 167.329,142.817 166.208,142.200 164.286 C 141.351 161.645,140.935 160.140,140.601 158.501 C 140.427 157.643,139.754 156.725,138.621 155.796 C 137.558 154.925,136.649 153.720,136.233 152.630 C 135.863 151.662,135.300 150.770,134.980 150.648 C 134.484 150.457,134.398 147.511,134.387 130.313 C 134.374 108.950,134.439 109.680,132.411 108.282 C 131.574 107.705,130.373 107.600,124.586 107.600 L 117.750 107.600 116.675 108.722 M131.125 109.616 C 131.606 110.064,132.029 110.469,132.064 110.516 C 132.099 110.562,132.234 119.928,132.364 131.329 C 132.583 150.542,132.651 152.086,133.303 152.450 C 133.689 152.666,134.369 153.554,134.812 154.424 C 135.256 155.293,136.238 156.409,136.994 156.902 C 138.992 158.206,140.738 164.230,140.229 168.063 C 139.971 170.008,140.731 172.400,141.607 172.400 C 141.820 172.400,142.580 173.303,143.297 174.406 C 144.014 175.509,144.965 176.508,145.412 176.627 C 145.859 176.746,146.759 177.645,147.412 178.625 C 148.065 179.606,148.960 180.509,149.400 180.633 C 149.840 180.757,150.799 181.667,151.531 182.654 C 152.263 183.641,153.163 184.564,153.531 184.705 C 154.273 184.989,155.566 186.403,155.587 186.953 C 155.594 187.147,156.230 187.900,157.000 188.626 C 158.595 190.130,158.729 190.642,157.622 190.993 C 157.194 191.129,156.292 192.138,155.617 193.235 C 154.942 194.332,154.091 195.344,153.725 195.484 C 152.922 195.792,151.600 197.070,151.600 197.538 C 151.600 199.647,146.476 199.465,145.143 197.308 C 144.671 196.543,143.772 195.607,143.148 195.227 C 142.523 194.847,141.479 193.800,140.828 192.902 C 140.177 192.003,139.294 191.157,138.867 191.021 C 138.439 190.885,137.620 190.065,137.046 189.198 C 136.473 188.332,135.501 187.363,134.888 187.045 C 134.274 186.728,133.523 186.003,133.218 185.434 C 132.222 183.572,130.567 182.953,125.879 182.687 C 122.614 182.502,121.360 182.270,120.657 181.722 C 120.148 181.325,118.380 180.381,116.727 179.625 C 114.122 178.432,113.633 178.040,113.040 176.671 C 112.663 175.803,111.691 174.082,110.878 172.846 C 108.877 169.805,108.667 163.218,110.510 161.293 C 111.086 160.692,111.839 159.527,112.182 158.705 C 112.525 157.883,113.602 156.477,114.575 155.580 C 117.139 153.217,117.200 152.688,117.203 132.480 C 117.204 122.866,117.319 113.805,117.456 112.346 L 117.707 109.691 119.354 109.294 C 122.671 108.493,130.138 108.697,131.125 109.616 M124.960 158.720 C 122.495 158.963,117.918 161.663,117.365 163.200 C 116.299 166.160,116.638 170.081,118.058 171.204 C 119.880 172.647,120.679 173.437,120.857 173.971 C 121.284 175.251,125.938 175.495,128.282 174.360 C 132.413 172.360,134.296 164.201,131.259 161.454 C 129.881 160.206,126.178 158.599,124.960 158.720 M110.591 281.870 C 110.145 281.959,109.549 282.556,109.265 283.197 C 108.982 283.838,108.356 284.473,107.875 284.608 C 105.658 285.231,104.719 285.796,104.186 286.828 C 103.868 287.441,103.244 288.059,102.798 288.201 C 101.979 288.460,100.800 290.703,100.800 291.999 C 100.800 292.384,100.172 293.385,99.404 294.223 C 96.961 296.891,96.794 303.157,99.102 305.619 C 99.822 306.386,100.662 307.909,100.994 309.045 C 101.443 310.586,101.937 311.326,102.993 312.045 C 103.764 312.570,104.396 313.235,104.397 313.522 C 104.399 313.810,105.255 314.417,106.300 314.872 C 108.618 315.880,109.600 316.700,109.600 317.625 C 109.600 318.223,110.154 318.367,113.397 318.610 C 117.490 318.917,123.200 318.551,123.200 317.981 C 123.200 316.889,127.457 314.400,129.325 314.400 C 130.149 314.400,130.326 314.166,130.503 312.844 C 130.618 311.988,131.092 310.863,131.556 310.344 C 132.020 309.825,132.648 309.108,132.950 308.750 C 133.252 308.393,133.748 308.018,134.050 307.917 C 134.490 307.770,134.600 306.262,134.600 300.367 L 134.600 293.000 132.704 291.097 C 131.318 289.706,130.742 288.776,130.559 287.633 C 130.339 286.257,130.154 286.043,128.995 285.825 C 126.988 285.449,125.133 284.437,123.720 282.948 L 122.441 281.600 116.920 281.654 C 113.884 281.684,111.036 281.782,110.591 281.870 M301.916 282.238 C 300.436 284.068,299.559 284.800,298.845 284.800 C 297.650 284.800,293.640 288.822,293.182 290.479 C 292.760 292.007,291.771 293.318,290.757 293.693 C 289.199 294.269,289.078 306.400,290.630 306.400 C 291.346 306.400,293.029 308.721,293.378 310.192 C 293.730 311.674,296.896 314.639,298.790 315.259 C 300.248 315.737,301.600 316.962,301.600 317.804 C 301.600 319.449,314.530 319.030,315.291 317.361 C 315.678 316.511,319.278 314.400,320.340 314.400 C 320.925 314.400,322.400 312.941,322.400 312.362 C 322.400 311.186,324.978 307.600,325.823 307.600 C 327.474 307.600,327.203 293.109,325.542 292.582 C 324.615 292.288,322.866 289.629,322.546 288.029 C 322.312 286.862,321.903 286.577,318.000 284.870 C 317.010 284.437,315.790 283.524,315.288 282.842 L 314.376 281.600 308.404 281.600 C 303.419 281.600,302.346 281.705,301.916 282.238 " stroke="none" fill="#9474cb" fill-rule="evenodd"></path><path id="path2" d="M121.405 112.249 C 120.895 113.471,120.800 116.567,120.800 132.030 C 120.800 151.345,120.759 151.811,118.957 152.991 C 118.428 153.338,117.928 154.179,117.779 154.971 C 117.465 156.645,116.594 157.489,115.000 157.667 C 113.910 157.788,113.790 157.947,113.694 159.400 C 113.635 160.280,113.310 162.177,112.971 163.615 C 112.464 165.770,112.437 166.686,112.818 168.815 C 113.072 170.237,113.398 172.120,113.540 173.000 C 113.778 174.464,113.915 174.611,115.151 174.729 C 116.686 174.876,117.718 174.218,116.539 173.844 C 113.306 172.818,114.078 158.818,117.370 158.794 C 118.454 158.786,118.871 158.453,119.614 157.000 C 120.817 154.651,126.446 154.039,129.149 155.964 C 130.791 157.133,130.623 159.971,130.470 133.700 L 130.337 110.800 126.174 110.800 L 122.011 110.800 121.405 112.249 M131.486 157.448 C 130.974 157.959,131.182 158.309,132.143 158.550 C 132.790 158.712,133.292 159.325,133.739 160.497 C 134.110 161.467,134.780 162.379,135.288 162.604 C 137.530 163.597,137.385 169.556,135.064 171.760 C 134.346 172.442,133.430 173.754,133.029 174.677 C 131.482 178.233,118.400 179.054,118.400 175.595 C 118.400 174.515,117.750 174.587,117.452 175.700 C 116.811 178.094,117.001 178.318,119.900 178.584 C 130.939 179.596,132.046 179.855,132.586 181.557 C 132.706 181.934,133.623 182.641,134.625 183.127 C 135.892 183.743,136.572 184.375,136.862 185.206 C 137.097 185.879,138.002 186.885,138.939 187.513 C 139.853 188.125,140.653 188.994,140.719 189.442 C 140.793 189.953,141.501 190.581,142.609 191.120 C 143.845 191.720,144.552 192.389,144.946 193.331 C 145.409 194.441,145.830 194.763,147.304 195.134 C 148.290 195.382,149.390 195.698,149.748 195.836 C 150.187 196.004,150.400 195.871,150.400 195.430 C 150.400 195.070,150.711 194.656,151.091 194.510 C 151.471 194.364,152.407 193.619,153.171 192.856 C 155.774 190.253,155.640 190.012,146.581 181.017 L 138.603 173.094 138.459 167.191 L 138.315 161.289 136.781 161.043 C 135.353 160.815,135.224 160.680,134.913 159.099 C 134.584 157.426,132.508 156.425,131.486 157.448 M110.520 261.584 L 105.241 261.800 103.905 263.097 C 102.934 264.039,101.790 264.591,99.719 265.117 C 97.607 265.653,96.571 266.160,95.716 267.076 C 94.552 268.322,91.812 270.000,90.942 270.000 C 90.683 270.000,90.099 270.769,89.644 271.709 C 89.091 272.851,88.417 273.569,87.612 273.873 C 86.880 274.149,86.245 274.773,85.993 275.464 C 84.916 278.417,83.641 280.400,82.820 280.400 C 82.259 280.400,81.848 281.479,80.975 285.241 C 80.406 287.691,80.056 288.425,79.169 289.021 C 77.877 289.889,77.600 290.982,77.600 295.201 C 77.600 300.475,76.387 302.000,72.195 302.000 L 70.509 302.000 70.254 303.856 C 69.842 306.865,69.957 308.398,70.695 309.738 C 71.665 311.500,72.843 312.800,73.470 312.800 C 74.011 312.800,74.061 313.211,74.154 318.400 C 74.211 321.622,74.450 322.000,76.424 322.000 C 77.866 322.000,78.004 322.093,78.043 323.100 C 78.298 329.658,78.259 329.559,80.623 329.703 C 82.176 329.799,82.198 329.821,82.064 331.236 C 81.894 333.031,82.775 334.000,84.577 334.000 C 85.810 334.000,85.915 334.107,86.156 335.612 C 86.477 337.620,87.318 338.000,91.446 338.000 L 94.440 338.000 94.320 339.900 L 94.200 341.800 98.079 341.914 L 101.959 342.028 102.292 343.712 C 102.730 345.932,102.494 345.895,116.871 345.953 C 130.074 346.005,130.000 346.020,130.000 343.371 L 130.000 342.000 133.900 341.969 C 139.321 341.927,140.894 341.404,141.371 339.489 C 141.723 338.071,141.820 338.000,143.391 338.000 C 145.431 338.000,146.000 337.464,146.000 335.542 L 146.000 334.044 147.900 333.922 L 149.800 333.800 149.922 331.900 L 150.044 330.000 151.542 330.000 C 153.434 330.000,154.000 329.431,154.000 327.528 C 154.000 326.201,154.135 325.987,155.100 325.784 C 157.546 325.269,157.869 324.613,157.953 319.988 C 157.998 317.486,158.049 317.357,159.168 316.935 C 161.327 316.119,162.000 313.894,162.000 307.562 L 162.000 302.075 159.900 301.789 C 155.906 301.246,154.800 299.493,154.800 293.712 C 154.800 289.258,154.369 285.603,153.843 285.587 C 152.401 285.543,150.977 283.129,150.566 280.027 C 150.358 278.458,150.115 277.966,149.450 277.765 C 148.124 277.364,146.800 275.953,146.800 274.941 C 146.800 274.304,146.399 273.817,145.500 273.362 C 143.656 272.428,142.800 271.592,142.800 270.725 C 142.800 270.313,142.485 269.871,142.100 269.745 C 139.914 269.025,138.842 268.296,138.490 267.287 C 138.142 266.289,137.758 266.096,134.777 265.419 C 132.169 264.827,131.130 264.373,129.955 263.312 C 129.075 262.517,127.910 261.892,127.129 261.795 C 124.581 261.482,115.762 261.369,110.520 261.584 M298.330 261.537 C 296.292 261.777,294.786 262.579,293.603 264.054 C 293.492 264.193,292.251 264.629,290.846 265.022 C 288.951 265.552,287.728 266.229,286.110 267.645 C 284.910 268.695,283.461 269.609,282.891 269.677 C 282.124 269.768,281.770 270.111,281.537 270.990 C 281.192 272.291,279.796 273.577,278.715 273.591 C 278.260 273.597,277.889 274.128,277.606 275.177 C 277.366 276.068,276.473 277.491,275.554 278.448 C 273.823 280.250,273.200 281.458,273.200 283.014 C 273.200 284.077,271.999 286.409,270.588 288.087 C 269.780 289.047,269.641 289.779,269.386 294.383 C 269.019 301.008,268.235 301.973,263.200 301.996 L 262.200 302.000 262.227 307.171 C 262.257 312.965,262.496 313.600,264.649 313.600 L 266.000 313.600 266.080 315.900 C 266.124 317.165,266.169 319.010,266.180 320.000 L 266.200 321.800 268.100 321.922 C 269.937 322.040,270.001 322.086,270.034 323.322 C 270.212 330.132,270.009 329.609,272.588 329.900 L 274.416 330.106 274.163 331.457 C 273.830 333.233,274.503 334.000,276.396 334.000 C 277.847 334.000,277.902 334.052,278.114 335.633 C 278.405 337.805,278.325 337.762,282.529 337.996 L 286.200 338.200 286.200 340.000 L 286.200 341.800 290.051 341.914 L 293.902 342.028 294.158 343.626 C 294.537 345.997,294.865 346.048,308.836 345.916 C 322.351 345.789,321.579 345.923,321.886 343.633 L 322.105 342.000 325.578 342.000 C 329.758 342.000,332.224 341.051,332.935 339.168 C 333.333 338.111,333.550 338.000,335.208 338.000 C 337.431 338.000,338.000 337.500,338.000 335.542 L 338.000 334.044 339.900 333.922 L 341.800 333.800 341.922 331.900 L 342.044 330.000 343.542 330.000 C 345.464 330.000,346.000 329.431,346.000 327.391 C 346.000 325.820,346.071 325.723,347.489 325.371 C 349.404 324.894,349.927 323.321,349.969 317.900 L 350.000 314.000 351.520 314.000 C 353.878 314.000,354.000 313.682,354.000 307.545 L 354.000 302.049 352.100 301.773 C 347.769 301.142,347.399 300.464,346.802 292.057 C 346.379 286.112,346.276 285.609,345.476 285.587 C 344.452 285.560,342.400 281.138,342.400 278.956 C 342.400 278.381,342.084 277.954,341.531 277.778 C 340.254 277.373,339.199 276.258,338.855 274.951 C 338.658 274.199,338.039 273.523,337.069 273.000 C 336.253 272.560,335.364 271.693,335.093 271.072 C 334.766 270.324,333.969 269.672,332.726 269.134 C 331.391 268.557,330.737 267.996,330.455 267.185 C 330.142 266.289,329.733 265.988,328.529 265.771 C 327.688 265.620,326.820 265.363,326.600 265.200 C 326.380 265.037,325.555 264.788,324.767 264.647 C 323.978 264.505,322.941 263.936,322.458 263.381 C 321.977 262.827,321.091 262.174,320.491 261.930 C 319.245 261.423,301.904 261.116,298.330 261.537 M118.800 277.953 C 118.800 278.147,120.375 278.429,122.300 278.581 C 126.852 278.939,128.180 279.426,129.059 281.058 C 129.528 281.929,130.170 282.462,130.959 282.635 C 132.250 282.918,133.565 284.219,133.587 285.233 C 133.594 285.581,134.254 286.301,135.054 286.833 C 136.601 287.863,137.297 289.408,137.784 292.900 C 137.930 293.945,138.185 294.800,138.350 294.800 C 139.672 294.800,141.169 301.878,140.000 302.600 C 139.780 302.736,139.600 303.114,139.600 303.440 C 139.600 303.767,139.242 304.417,138.805 304.887 C 138.368 305.356,137.912 306.384,137.793 307.170 C 137.218 310.945,136.429 312.695,134.993 313.377 C 134.087 313.806,133.600 314.317,133.600 314.837 C 133.600 315.863,131.871 317.600,130.851 317.600 C 130.385 317.600,129.715 318.167,129.204 318.993 C 128.245 320.545,125.591 321.598,122.627 321.602 C 121.732 321.603,120.314 321.795,119.475 322.028 C 118.395 322.328,116.818 322.324,114.075 322.014 C 106.745 321.185,104.319 320.435,103.812 318.837 C 103.675 318.406,102.737 317.654,101.728 317.165 C 100.247 316.448,99.730 315.905,99.047 314.348 C 98.581 313.287,97.987 312.415,97.727 312.409 C 93.824 312.332,93.532 290.070,97.408 287.996 C 97.942 287.710,98.569 286.900,98.801 286.197 C 99.319 284.627,100.617 283.361,102.317 282.769 C 103.023 282.523,103.600 282.101,103.600 281.831 C 103.600 280.305,106.517 279.015,110.975 278.569 C 112.501 278.416,114.211 278.151,114.775 277.980 C 116.206 277.546,118.800 277.528,118.800 277.953 M310.400 277.958 C 310.400 278.154,312.049 278.446,314.065 278.605 C 318.428 278.950,320.171 279.596,320.983 281.168 C 321.352 281.880,322.120 282.510,322.960 282.787 C 324.343 283.243,325.600 284.662,325.600 285.767 C 325.600 286.095,326.227 286.660,326.993 287.023 C 328.543 287.759,329.013 288.859,329.583 293.080 C 329.774 294.495,330.279 296.068,330.759 296.742 C 331.945 298.409,331.881 301.240,330.598 303.768 C 330.049 304.850,329.600 306.302,329.600 306.995 C 329.600 309.609,328.475 312.288,326.993 313.204 C 326.227 313.678,325.600 314.338,325.600 314.672 C 325.600 315.480,323.298 317.600,322.421 317.600 C 322.036 317.600,321.387 318.229,320.968 319.007 C 319.282 322.139,307.223 323.130,298.317 320.869 C 296.688 320.455,295.838 319.775,295.455 318.581 C 295.316 318.146,294.397 317.469,293.383 317.052 C 292.012 316.490,291.509 316.044,291.350 315.252 C 291.089 313.954,290.514 313.190,289.136 312.309 C 285.559 310.022,285.506 290.068,289.071 287.806 C 290.208 287.085,290.550 286.618,291.568 284.400 C 291.719 284.070,292.565 283.460,293.447 283.044 C 294.328 282.628,295.346 281.771,295.708 281.140 C 296.545 279.682,297.772 279.209,302.000 278.713 C 303.870 278.494,305.571 278.154,305.780 277.957 C 306.276 277.491,310.400 277.492,310.400 277.958 M14.825 282.518 C 14.792 283.450,16.556 285.209,17.482 285.168 C 18.040 285.144,18.066 285.088,17.600 284.916 C 16.681 284.578,15.542 283.489,15.178 282.600 C 14.890 281.896,14.848 281.886,14.825 282.518 M73.530 310.510 C 74.489 311.795,73.811 312.064,72.655 310.858 C 71.715 309.876,71.648 309.687,72.262 309.738 C 72.668 309.772,73.238 310.120,73.530 310.510 M160.000 314.130 C 160.000 314.202,159.526 314.697,158.946 315.230 C 157.959 316.138,157.920 316.145,158.341 315.335 C 158.716 314.614,159.117 314.279,159.900 314.032 C 159.955 314.014,160.000 314.059,160.000 314.130 M332.000 338.130 C 332.000 338.202,331.526 338.697,330.946 339.230 C 329.959 340.138,329.920 340.145,330.341 339.335 C 330.716 338.614,331.117 338.279,331.900 338.032 C 331.955 338.014,332.000 338.059,332.000 338.130 " stroke="none" fill="#37474c" fill-rule="evenodd"></path><path id="path3" d="M238.267 114.267 C 238.120 114.413,238.000 115.409,238.000 116.479 C 238.000 117.818,237.817 118.495,237.415 118.650 C 236.503 118.999,235.303 122.709,234.413 127.925 C 233.613 132.611,233.600 134.077,233.600 217.344 L 233.600 302.000 248.026 302.000 C 266.869 302.000,266.838 302.010,267.398 295.400 C 267.927 289.147,268.717 285.886,270.209 283.800 C 270.681 283.140,271.459 281.545,271.937 280.255 C 272.440 278.899,273.566 277.066,274.604 275.911 C 275.592 274.813,276.400 273.776,276.400 273.609 C 276.400 273.184,281.624 268.000,282.052 268.000 C 282.243 268.000,283.111 267.289,283.980 266.420 C 284.962 265.438,286.704 264.364,288.580 263.583 C 290.241 262.891,291.600 262.177,291.600 261.996 C 291.600 261.302,295.424 260.287,302.046 259.225 C 309.274 258.065,321.220 259.514,325.343 262.050 C 326.412 262.708,328.182 263.599,329.277 264.030 C 330.372 264.462,331.859 265.442,332.581 266.208 C 333.304 266.973,334.098 267.600,334.347 267.600 C 334.596 267.600,334.800 267.768,334.800 267.973 C 334.800 268.178,335.151 268.457,335.580 268.594 C 336.008 268.730,336.469 269.147,336.602 269.520 C 336.736 269.894,337.635 270.830,338.600 271.600 C 339.565 272.370,340.478 273.349,340.628 273.775 C 340.778 274.201,341.515 275.128,342.265 275.835 C 343.049 276.575,344.048 278.191,344.615 279.637 C 345.157 281.021,345.740 282.254,345.910 282.377 C 347.396 283.452,348.136 286.209,349.570 296.024 C 350.266 300.782,352.313 302.004,359.554 301.983 C 368.203 301.957,369.580 301.564,369.594 299.121 C 369.600 298.102,369.717 298.035,371.700 297.921 L 373.800 297.800 373.921 295.921 L 374.042 294.042 375.921 293.921 L 377.800 293.800 377.922 291.900 L 378.044 290.000 379.542 290.000 C 381.464 290.000,382.000 289.431,382.000 287.392 C 382.000 285.917,382.136 285.684,383.300 285.172 C 385.954 284.004,385.800 287.145,385.800 234.205 C 385.800 186.526,385.795 186.210,385.000 186.067 C 383.372 185.773,382.000 183.982,382.000 182.151 C 382.000 179.353,381.461 178.451,379.612 178.156 C 378.069 177.909,378.000 177.835,378.000 176.429 C 378.000 174.569,377.424 174.000,375.542 174.000 L 374.044 174.000 373.922 172.100 L 373.800 170.200 371.900 170.078 L 370.000 169.956 369.990 168.278 C 369.968 164.397,368.927 162.400,366.924 162.400 C 366.116 162.400,366.000 162.203,366.000 160.829 C 366.000 158.893,365.177 158.000,363.393 158.000 C 362.067 158.000,362.042 157.967,361.922 156.100 L 361.800 154.200 359.921 154.079 L 358.042 153.958 357.921 152.083 C 357.824 150.573,357.644 150.179,357.000 150.065 C 355.434 149.786,354.003 147.978,353.960 146.225 C 353.887 143.251,353.535 142.636,351.682 142.243 C 350.078 141.903,350.000 141.819,350.000 140.423 C 350.000 138.569,349.423 138.000,347.542 138.000 L 346.044 138.000 345.922 136.100 L 345.800 134.200 343.900 134.078 L 342.000 133.956 341.969 132.078 C 341.914 128.680,341.184 127.051,339.534 126.641 C 338.196 126.307,338.076 126.153,337.892 124.521 C 337.651 122.378,337.658 122.385,335.633 122.114 C 334.059 121.903,334.000 121.842,334.000 120.427 C 334.000 118.564,333.423 118.000,331.520 118.000 C 330.056 118.000,330.000 117.950,330.000 116.629 C 330.000 113.792,333.672 114.000,283.638 114.000 C 258.830 114.000,238.413 114.120,238.267 114.267 M311.963 133.187 C 313.373 133.390,314.633 133.719,314.763 133.918 C 314.893 134.116,315.900 134.775,317.000 135.381 C 319.084 136.530,320.400 137.685,320.400 138.364 C 320.400 138.583,321.090 139.317,321.934 139.995 C 322.778 140.673,323.859 141.923,324.336 142.772 C 324.813 143.621,325.466 144.416,325.786 144.539 C 326.106 144.662,326.928 145.536,327.613 146.481 C 328.297 147.427,329.449 148.840,330.173 149.623 C 330.897 150.405,331.711 151.460,331.983 151.968 C 332.453 152.847,334.785 155.620,338.447 159.653 C 339.372 160.673,340.362 161.952,340.647 162.496 C 340.932 163.040,341.615 163.780,342.164 164.140 C 342.713 164.500,343.629 165.589,344.198 166.561 C 344.767 167.532,345.489 168.425,345.801 168.545 C 346.113 168.665,346.928 169.536,347.613 170.481 C 348.297 171.427,349.449 172.840,350.173 173.623 C 350.897 174.405,351.696 175.432,351.949 175.904 C 352.201 176.376,353.306 177.789,354.404 179.044 C 355.502 180.298,356.400 181.531,356.400 181.784 C 356.400 182.036,356.895 183.223,357.500 184.421 L 358.600 186.600 358.600 198.210 C 358.600 209.677,358.589 209.831,357.705 210.780 C 357.213 211.308,356.699 212.294,356.564 212.970 C 355.882 216.384,351.953 216.961,330.988 216.724 L 318.176 216.579 316.244 215.447 C 315.181 214.824,312.216 212.211,309.656 209.641 C 307.095 207.072,303.855 203.986,302.455 202.784 L 299.910 200.600 282.855 200.346 C 262.104 200.037,262.212 200.057,260.200 196.138 L 259.000 193.800 258.871 168.600 C 258.728 140.949,258.865 138.624,260.749 136.515 C 262.071 135.035,265.701 133.265,267.800 133.077 C 271.452 132.751,309.604 132.846,311.963 133.187 " stroke="none" fill="#fbc304" fill-rule="evenodd"></path><path id="path4" d="M218.457 66.403 C 218.819 66.617,219.539 66.863,220.057 66.951 C 220.576 67.038,220.951 67.323,220.890 67.584 C 220.830 67.846,220.982 67.935,221.228 67.782 C 221.918 67.356,220.836 66.543,219.200 66.258 C 218.196 66.083,217.986 66.124,218.457 66.403 M119.354 109.294 L 117.707 109.691 117.456 112.346 C 117.319 113.805,117.204 122.866,117.203 132.480 C 117.200 152.688,117.139 153.217,114.575 155.580 C 113.602 156.477,112.525 157.883,112.182 158.705 C 111.839 159.527,111.086 160.692,110.510 161.293 C 108.667 163.218,108.877 169.805,110.878 172.846 C 111.691 174.082,112.663 175.803,113.040 176.671 C 113.633 178.040,114.122 178.432,116.727 179.625 C 118.380 180.381,120.148 181.325,120.657 181.722 C 121.360 182.270,122.614 182.502,125.879 182.687 C 130.567 182.953,132.222 183.572,133.218 185.434 C 133.523 186.003,134.274 186.728,134.888 187.045 C 135.501 187.363,136.473 188.332,137.046 189.198 C 137.620 190.065,138.439 190.885,138.867 191.021 C 139.294 191.157,140.177 192.003,140.828 192.902 C 141.479 193.800,142.523 194.847,143.148 195.227 C 143.772 195.607,144.671 196.543,145.143 197.308 C 146.476 199.465,151.600 199.647,151.600 197.538 C 151.600 197.070,152.922 195.792,153.725 195.484 C 154.091 195.344,154.942 194.332,155.617 193.235 C 156.292 192.138,157.194 191.129,157.622 190.993 C 158.729 190.642,158.595 190.130,157.000 188.626 C 156.230 187.900,155.594 187.147,155.587 186.953 C 155.566 186.403,154.273 184.989,153.531 184.705 C 153.163 184.564,152.263 183.641,151.531 182.654 C 150.799 181.667,149.840 180.757,149.400 180.633 C 148.960 180.509,148.065 179.606,147.412 178.625 C 146.759 177.645,145.859 176.746,145.412 176.627 C 144.965 176.508,144.014 175.509,143.297 174.406 C 142.580 173.303,141.820 172.400,141.607 172.400 C 140.731 172.400,139.971 170.008,140.229 168.063 C 140.738 164.230,138.992 158.206,136.994 156.902 C 136.238 156.409,135.256 155.293,134.812 154.424 C 134.369 153.554,133.689 152.666,133.303 152.450 C 132.651 152.086,132.583 150.542,132.364 131.329 C 132.234 119.928,132.099 110.562,132.064 110.516 C 130.747 108.768,124.156 108.134,119.354 109.294 M130.470 133.700 C 130.623 159.971,130.791 157.133,129.149 155.964 C 126.446 154.039,120.817 154.651,119.614 157.000 C 118.871 158.453,118.454 158.786,117.370 158.794 C 114.078 158.818,113.306 172.818,116.539 173.844 C 117.718 174.218,116.686 174.876,115.151 174.729 C 113.915 174.611,113.778 174.464,113.540 173.000 C 113.398 172.120,113.072 170.237,112.818 168.815 C 112.437 166.686,112.464 165.770,112.971 163.615 C 113.310 162.177,113.635 160.280,113.694 159.400 C 113.790 157.947,113.910 157.788,115.000 157.667 C 116.594 157.489,117.465 156.645,117.779 154.971 C 117.928 154.179,118.428 153.338,118.957 152.991 C 120.759 151.811,120.800 151.345,120.800 132.030 C 120.800 116.567,120.895 113.471,121.405 112.249 L 122.011 110.800 126.174 110.800 L 130.337 110.800 130.470 133.700 M267.800 133.077 C 265.701 133.265,262.071 135.035,260.749 136.515 C 258.865 138.624,258.728 140.949,258.871 168.600 L 259.000 193.800 260.200 196.138 C 262.212 200.057,262.104 200.037,282.855 200.346 L 299.910 200.600 302.455 202.784 C 303.855 203.986,307.095 207.072,309.656 209.641 C 312.216 212.211,315.181 214.824,316.244 215.447 L 318.176 216.579 330.988 216.724 C 351.953 216.961,355.882 216.384,356.564 212.970 C 356.699 212.294,357.213 211.308,357.705 210.780 C 358.589 209.831,358.600 209.677,358.600 198.210 L 358.600 186.600 357.500 184.421 C 356.895 183.223,356.400 182.036,356.400 181.784 C 356.400 181.531,355.502 180.298,354.404 179.044 C 353.306 177.789,352.201 176.376,351.949 175.904 C 351.696 175.432,350.897 174.405,350.173 173.623 C 349.449 172.840,348.297 171.427,347.613 170.481 C 346.928 169.536,346.113 168.665,345.801 168.545 C 345.489 168.425,344.767 167.532,344.198 166.561 C 343.629 165.589,342.713 164.500,342.164 164.140 C 341.615 163.780,340.932 163.040,340.647 162.496 C 340.362 161.952,339.372 160.673,338.447 159.653 C 334.785 155.620,332.453 152.847,331.983 151.968 C 331.711 151.460,330.897 150.405,330.173 149.623 C 329.449 148.840,328.297 147.427,327.613 146.481 C 326.928 145.536,326.106 144.662,325.786 144.539 C 325.466 144.416,324.813 143.621,324.336 142.772 C 323.859 141.923,322.778 140.673,321.934 139.995 C 321.090 139.317,320.400 138.583,320.400 138.364 C 320.400 137.685,319.084 136.530,317.000 135.381 C 315.900 134.775,314.893 134.116,314.763 133.918 C 314.148 132.981,276.440 132.306,267.800 133.077 M134.913 159.099 C 135.224 160.680,135.353 160.815,136.781 161.043 L 138.315 161.289 138.459 167.191 L 138.603 173.094 146.581 181.017 C 155.640 190.012,155.774 190.253,153.171 192.856 C 152.407 193.619,151.471 194.364,151.091 194.510 C 150.711 194.656,150.400 195.070,150.400 195.430 C 150.400 195.871,150.187 196.004,149.748 195.836 C 149.390 195.698,148.290 195.382,147.304 195.134 C 145.830 194.763,145.409 194.441,144.946 193.331 C 144.552 192.389,143.845 191.720,142.609 191.120 C 141.501 190.581,140.793 189.953,140.719 189.442 C 140.653 188.994,139.853 188.125,138.939 187.513 C 138.002 186.885,137.097 185.879,136.862 185.206 C 136.572 184.375,135.892 183.743,134.625 183.127 C 133.623 182.641,132.706 181.934,132.586 181.557 C 132.046 179.855,130.939 179.596,119.900 178.584 C 117.001 178.318,116.811 178.094,117.452 175.700 C 117.750 174.587,118.400 174.515,118.400 175.595 C 118.400 179.054,131.482 178.233,133.029 174.677 C 133.430 173.754,134.346 172.442,135.064 171.760 C 137.385 169.556,137.530 163.597,135.288 162.604 C 134.780 162.379,134.110 161.467,133.739 160.497 C 133.292 159.325,132.790 158.712,132.143 158.550 C 130.345 158.099,131.150 157.109,133.175 157.281 C 134.479 157.392,134.603 157.521,134.913 159.099 M131.259 161.454 C 134.296 164.201,132.413 172.360,128.282 174.360 C 125.938 175.495,121.284 175.251,120.857 173.971 C 120.679 173.437,119.880 172.647,118.058 171.204 C 116.638 170.081,116.299 166.160,117.365 163.200 C 117.918 161.663,122.495 158.963,124.960 158.720 C 126.178 158.599,129.881 160.206,131.259 161.454 M112.000 258.625 C 111.450 258.719,109.740 258.991,108.200 259.228 C 103.935 259.887,100.687 260.802,99.800 261.595 C 99.026 262.288,95.515 264.003,93.720 264.565 C 93.237 264.717,92.742 265.147,92.621 265.520 C 92.500 265.894,91.732 266.650,90.913 267.200 C 89.002 268.484,84.835 272.592,83.610 274.400 C 83.089 275.170,82.246 276.160,81.738 276.600 C 81.230 277.040,80.349 278.660,79.781 280.200 C 79.213 281.740,78.286 283.674,77.721 284.499 C 76.498 286.281,76.105 287.949,75.534 293.766 C 74.984 299.380,74.573 300.343,72.347 301.246 L 70.600 301.955 72.240 301.978 C 76.358 302.034,77.600 300.463,77.600 295.201 C 77.600 290.982,77.877 289.889,79.169 289.021 C 80.056 288.425,80.406 287.691,80.975 285.241 C 81.848 281.479,82.259 280.400,82.820 280.400 C 83.641 280.400,84.916 278.417,85.993 275.464 C 86.245 274.773,86.880 274.149,87.612 273.873 C 88.417 273.569,89.091 272.851,89.644 271.709 C 90.099 270.769,90.683 270.000,90.942 270.000 C 91.812 270.000,94.552 268.322,95.716 267.076 C 96.571 266.160,97.607 265.653,99.719 265.117 C 101.790 264.591,102.934 264.039,103.905 263.097 L 105.242 261.800 111.321 261.573 C 114.664 261.448,119.852 261.450,122.848 261.579 L 128.296 261.813 129.874 263.239 C 131.139 264.381,132.114 264.815,134.777 265.419 C 137.758 266.096,138.142 266.289,138.490 267.287 C 138.842 268.296,139.914 269.025,142.100 269.745 C 142.485 269.871,142.800 270.313,142.800 270.725 C 142.800 271.592,143.656 272.428,145.500 273.362 C 146.399 273.817,146.800 274.304,146.800 274.941 C 146.800 275.953,148.124 277.364,149.450 277.765 C 150.115 277.966,150.358 278.458,150.566 280.027 C 150.977 283.129,152.401 285.543,153.843 285.587 C 154.369 285.603,154.800 289.258,154.800 293.712 C 154.800 299.406,155.902 301.214,159.710 301.772 L 161.620 302.052 160.311 300.194 C 159.469 298.999,158.834 297.456,158.532 295.868 C 158.273 294.511,157.858 292.590,157.610 291.600 C 157.362 290.610,156.921 288.630,156.632 287.200 C 155.963 283.897,155.757 283.393,154.166 281.186 C 153.447 280.189,152.731 278.866,152.576 278.247 C 152.421 277.628,151.507 276.312,150.547 275.324 C 149.586 274.335,148.800 273.347,148.800 273.127 C 148.800 272.499,143.813 267.841,142.225 266.985 C 141.439 266.562,140.703 265.925,140.590 265.569 C 140.477 265.214,139.105 264.340,137.540 263.628 C 135.975 262.916,134.341 262.003,133.908 261.600 C 133.185 260.926,131.660 260.487,125.600 259.210 C 123.331 258.731,113.773 258.320,112.000 258.625 M301.600 259.270 C 295.362 260.304,291.600 261.330,291.600 261.996 C 291.600 262.177,290.241 262.891,288.580 263.583 C 286.704 264.364,284.962 265.438,283.980 266.420 C 283.111 267.289,282.243 268.000,282.052 268.000 C 281.624 268.000,276.400 273.184,276.400 273.609 C 276.400 273.776,275.592 274.813,274.604 275.911 C 273.566 277.066,272.440 278.899,271.937 280.255 C 271.459 281.545,270.681 283.140,270.209 283.800 C 268.717 285.886,267.927 289.147,267.398 295.400 C 267.060 299.390,266.655 300.185,264.467 301.150 C 262.549 301.996,262.963 302.196,265.697 301.744 C 268.572 301.268,269.059 300.298,269.386 294.383 C 269.641 289.779,269.780 289.047,270.588 288.087 C 271.999 286.409,273.200 284.077,273.200 283.014 C 273.200 281.458,273.823 280.250,275.554 278.448 C 276.473 277.491,277.366 276.068,277.606 275.177 C 277.889 274.128,278.260 273.597,278.715 273.591 C 279.796 273.577,281.192 272.291,281.537 270.990 C 281.770 270.111,282.124 269.768,282.891 269.677 C 283.461 269.609,284.910 268.695,286.110 267.645 C 287.715 266.240,288.956 265.549,290.808 265.030 C 292.341 264.600,293.809 263.866,294.563 263.153 C 296.354 261.457,296.791 261.400,308.000 261.400 C 319.519 261.400,320.709 261.551,322.279 263.215 C 322.915 263.889,324.003 264.510,324.799 264.653 C 325.570 264.791,326.380 265.037,326.600 265.200 C 326.820 265.363,327.688 265.620,328.529 265.771 C 329.733 265.988,330.142 266.289,330.455 267.185 C 330.737 267.996,331.391 268.557,332.726 269.134 C 333.969 269.672,334.766 270.324,335.093 271.072 C 335.364 271.693,336.253 272.560,337.069 273.000 C 338.039 273.523,338.658 274.199,338.855 274.951 C 339.199 276.258,340.254 277.373,341.531 277.778 C 342.084 277.954,342.400 278.381,342.400 278.956 C 342.400 281.138,344.452 285.560,345.476 285.587 C 346.276 285.609,346.379 286.112,346.802 292.057 C 347.395 300.415,347.769 301.116,351.975 301.761 L 353.751 302.034 352.690 301.199 C 350.989 299.861,349.857 297.983,349.570 296.024 C 348.136 286.209,347.396 283.452,345.910 282.377 C 345.740 282.254,345.157 281.021,344.615 279.637 C 344.048 278.191,343.049 276.575,342.265 275.835 C 341.515 275.128,340.778 274.201,340.628 273.775 C 340.478 273.349,339.565 272.370,338.600 271.600 C 337.635 270.830,336.736 269.894,336.602 269.520 C 336.469 269.147,336.008 268.730,335.580 268.594 C 335.151 268.457,334.800 268.178,334.800 267.973 C 334.800 267.768,334.596 267.600,334.347 267.600 C 334.098 267.600,333.304 266.973,332.581 266.208 C 331.859 265.442,330.372 264.462,329.277 264.030 C 328.182 263.599,326.412 262.708,325.343 262.050 C 321.208 259.506,308.881 258.063,301.600 259.270 M114.775 277.980 C 114.211 278.151,112.501 278.416,110.975 278.569 C 106.517 279.015,103.600 280.305,103.600 281.831 C 103.600 282.101,103.023 282.523,102.317 282.769 C 100.617 283.361,99.319 284.627,98.801 286.197 C 98.569 286.900,97.942 287.710,97.408 287.996 C 93.532 290.070,93.824 312.332,97.727 312.409 C 97.987 312.415,98.581 313.287,99.047 314.348 C 99.730 315.905,100.247 316.448,101.728 317.165 C 102.737 317.654,103.675 318.406,103.812 318.837 C 104.319 320.435,106.745 321.185,114.075 322.014 C 116.818 322.324,118.395 322.328,119.475 322.028 C 120.314 321.795,121.732 321.603,122.627 321.602 C 125.591 321.598,128.245 320.545,129.204 318.993 C 129.715 318.167,130.385 317.600,130.851 317.600 C 131.871 317.600,133.600 315.863,133.600 314.837 C 133.600 314.317,134.087 313.806,134.993 313.377 C 136.429 312.695,137.218 310.945,137.793 307.170 C 137.912 306.384,138.368 305.356,138.805 304.887 C 139.242 304.417,139.600 303.767,139.600 303.440 C 139.600 303.114,139.780 302.736,140.000 302.600 C 141.169 301.878,139.672 294.800,138.350 294.800 C 138.185 294.800,137.930 293.945,137.784 292.900 C 137.297 289.408,136.601 287.863,135.054 286.833 C 134.254 286.301,133.594 285.581,133.587 285.233 C 133.565 284.219,132.250 282.918,130.959 282.635 C 130.170 282.462,129.528 281.929,129.059 281.058 C 128.180 279.426,126.852 278.939,122.300 278.581 C 120.375 278.429,118.800 278.147,118.800 277.953 C 118.800 277.528,116.206 277.546,114.775 277.980 M305.780 277.957 C 305.571 278.154,303.870 278.494,302.000 278.713 C 297.772 279.209,296.545 279.682,295.708 281.140 C 295.346 281.771,294.328 282.628,293.447 283.044 C 292.565 283.460,291.719 284.070,291.568 284.400 C 290.550 286.618,290.208 287.085,289.071 287.806 C 285.506 290.068,285.559 310.022,289.136 312.309 C 290.514 313.190,291.089 313.954,291.350 315.252 C 291.509 316.044,292.012 316.490,293.383 317.052 C 294.397 317.469,295.316 318.146,295.455 318.581 C 296.025 320.359,297.262 320.880,302.800 321.676 C 306.825 322.255,309.921 322.260,314.000 321.696 C 319.169 320.981,320.098 320.623,320.968 319.007 C 321.387 318.229,322.036 317.600,322.421 317.600 C 323.298 317.600,325.600 315.480,325.600 314.672 C 325.600 314.338,326.227 313.678,326.993 313.204 C 328.475 312.288,329.600 309.609,329.600 306.995 C 329.600 306.302,330.049 304.850,330.598 303.768 C 331.881 301.240,331.945 298.409,330.759 296.742 C 330.279 296.068,329.774 294.495,329.583 293.080 C 329.013 288.859,328.543 287.759,326.993 287.023 C 326.227 286.660,325.600 286.095,325.600 285.767 C 325.600 284.662,324.343 283.243,322.960 282.787 C 322.120 282.510,321.352 281.880,320.983 281.168 C 320.171 279.596,318.428 278.950,314.065 278.605 C 312.049 278.446,310.400 278.154,310.400 277.958 C 310.400 277.492,306.276 277.491,305.780 277.957 M123.720 282.948 C 125.133 284.437,126.988 285.449,128.995 285.825 C 130.154 286.043,130.339 286.257,130.559 287.633 C 130.742 288.776,131.318 289.706,132.704 291.097 L 134.600 293.000 134.600 300.367 C 134.600 306.262,134.490 307.770,134.050 307.917 C 133.748 308.018,133.252 308.393,132.950 308.750 C 132.648 309.108,132.020 309.825,131.556 310.344 C 131.092 310.863,130.618 311.988,130.503 312.844 C 130.326 314.166,130.149 314.400,129.325 314.400 C 127.457 314.400,123.200 316.889,123.200 317.981 C 123.200 318.551,117.490 318.917,113.397 318.610 C 110.154 318.367,109.600 318.223,109.600 317.625 C 109.600 316.700,108.618 315.880,106.300 314.872 C 105.255 314.417,104.399 313.810,104.397 313.522 C 104.396 313.235,103.764 312.570,102.993 312.045 C 101.937 311.326,101.443 310.586,100.994 309.045 C 100.662 307.909,99.822 306.386,99.102 305.619 C 96.794 303.157,96.961 296.891,99.404 294.223 C 100.172 293.385,100.800 292.384,100.800 291.999 C 100.800 290.703,101.979 288.460,102.798 288.201 C 103.244 288.059,103.868 287.441,104.186 286.828 C 104.719 285.796,105.658 285.231,107.875 284.608 C 108.356 284.473,108.982 283.838,109.265 283.197 C 109.901 281.762,110.101 281.722,116.920 281.654 L 122.441 281.600 123.720 282.948 M315.288 282.842 C 315.790 283.524,317.010 284.437,318.000 284.870 C 321.903 286.577,322.312 286.862,322.546 288.029 C 322.866 289.629,324.615 292.288,325.542 292.582 C 327.203 293.109,327.474 307.600,325.823 307.600 C 324.978 307.600,322.400 311.186,322.400 312.362 C 322.400 312.941,320.925 314.400,320.340 314.400 C 319.278 314.400,315.678 316.511,315.291 317.361 C 314.530 319.030,301.600 319.449,301.600 317.804 C 301.600 316.962,300.248 315.737,298.790 315.259 C 296.896 314.639,293.730 311.674,293.378 310.192 C 293.029 308.721,291.346 306.400,290.630 306.400 C 289.078 306.400,289.199 294.269,290.757 293.693 C 291.771 293.318,292.760 292.007,293.182 290.479 C 293.640 288.822,297.650 284.800,298.845 284.800 C 299.559 284.800,300.436 284.068,301.916 282.238 C 302.346 281.705,303.419 281.600,308.404 281.600 L 314.376 281.600 315.288 282.842 M15.600 282.342 C 15.600 282.969,17.570 284.964,17.881 284.652 C 18.009 284.524,17.548 283.841,16.857 283.134 C 16.166 282.427,15.600 282.070,15.600 282.342 M30.821 298.974 C 30.467 299.401,30.458 299.762,30.786 300.374 C 31.343 301.415,31.567 301.423,31.490 300.400 C 31.457 299.960,31.266 299.600,31.066 299.600 C 30.866 299.600,30.926 299.330,31.200 299.000 C 31.474 298.670,31.608 298.400,31.498 298.400 C 31.388 298.400,31.083 298.658,30.821 298.974 M70.093 303.200 C 70.093 303.970,70.175 304.285,70.276 303.900 C 70.376 303.515,70.376 302.885,70.276 302.500 C 70.175 302.115,70.093 302.430,70.093 303.200 M262.128 304.800 C 262.128 306.230,262.201 306.815,262.289 306.100 C 262.378 305.385,262.378 304.215,262.289 303.500 C 262.201 302.785,262.128 303.370,262.128 304.800 M72.655 310.858 C 73.278 311.507,73.848 311.855,73.923 311.630 C 74.134 310.999,73.087 309.807,72.262 309.738 C 71.648 309.687,71.715 309.876,72.655 310.858 M159.295 314.266 C 159.018 314.378,158.588 314.859,158.341 315.335 C 157.920 316.145,157.959 316.138,158.946 315.230 C 159.526 314.697,160.000 314.202,160.000 314.130 C 160.000 313.984,159.993 313.985,159.295 314.266 M331.295 338.266 C 331.018 338.378,330.588 338.859,330.341 339.335 C 329.920 340.145,329.959 340.138,330.946 339.230 C 331.526 338.697,332.000 338.202,332.000 338.130 C 332.000 337.984,331.993 337.985,331.295 338.266 " stroke="none" fill="#485e67" fill-rule="evenodd"></path></g></svg>